#Comment line ignore any data following # character 
#Hierarchical Translation and Rotation (.htr) file 
[Header]	
#Header keywords are followed by a single value 
FileType HTR		#Single word string
DataType HTRS		#Translation followed by rotation and scale data
FileVersion 1		#integer
NumSegments 84		#integer
NumFrames 2		#integer
DataFrameRate 30		#integer, data frame rate in this file
EulerRotationOrder ZYX
CalibrationUnits mm
RotationUnits Degrees
GlobalAxisofGravity Y
BoneLengthAxis Y
ScaleFactor 1.00
[SegmentNames&Hierarchy]
#CHILD	PARENT
MASTER GLOBAL
root MASTER
chest root
L_mid_tent01 root
R_mid_tent01 root
spine01 root
Bip01_Neck chest
L_humerus chest
R_humerus chest
weapon_bone chest
Bip01_Head Bip01_Neck
eye_left_bone Bip01_Head
eye_right_bone Bip01_Head
L_forearm L_humerus
L_front_hand L_forearm
L_weapon_bone L_forearm
L_front_hand01_01 L_front_hand
L_front_hand02_01 L_front_hand
L_front_hand03_01 L_front_hand
L_front_hand01_02 L_front_hand01_01
L_front_hand02_02 L_front_hand02_01
L_front_hand03_02 L_front_hand03_01
R_forearm R_humerus
R_front_hand R_forearm
R_weapon_bone R_forearm
R_front_hand01_01 R_front_hand
R_front_hand02_01 R_front_hand
R_front_hand03_01 R_front_hand
R_front_hand01_02 R_front_hand01_01
R_front_hand02_02 R_front_hand02_01
R_front_hand03_02 R_front_hand03_01
null_rope01_connect L_mid_tent01
Rope1_Seg01 null_rope01_connect
Rope1_Seg02 Rope1_Seg01
Rope1_Seg03 Rope1_Seg02
Rope1_Seg04 Rope1_Seg03
Rope1_Seg05 Rope1_Seg04
Rope1_Seg06 Rope1_Seg05
Rope1_Seg07 Rope1_Seg06
Rope1_Seg09 Rope1_Seg07
L_mid_hand01 Rope1_Seg09
L_mid_hand02 Rope1_Seg09
L_mid_hand03 Rope1_Seg09
null_rope02_connect R_mid_tent01
Rope2_Seg01 null_rope02_connect
Rope2_Seg02 Rope2_Seg01
Rope2_Seg03 Rope2_Seg02
Rope2_Seg04 Rope2_Seg03
Rope2_Seg05 Rope2_Seg04
Rope2_Seg06 Rope2_Seg05
Rope2_Seg07 Rope2_Seg06
Rope2_Seg09 Rope2_Seg07
R_mid_hand01 Rope2_Seg09
R_mid_hand02 Rope2_Seg09
R_mid_hand03 Rope2_Seg09
spine02 spine01
spine03 spine02
pelvis spine03
null_rope03_connect pelvis
null_rope04_connect pelvis
Rope3_Seg01 null_rope03_connect
Rope3_Seg02 Rope3_Seg01
Rope3_Seg03 Rope3_Seg02
Rope3_Seg04 Rope3_Seg03
Rope3_Seg05 Rope3_Seg04
Rope3_Seg06 Rope3_Seg05
Rope3_Seg07 Rope3_Seg06
Rope3_Seg08 Rope3_Seg07
Rope3_Seg09 Rope3_Seg08
R_rear_hand01 Rope3_Seg09
R_rear_hand02 Rope3_Seg09
R_rear_hand03 Rope3_Seg09
Rope4_Seg01 null_rope04_connect
Rope4_Seg02 Rope4_Seg01
Rope4_Seg03 Rope4_Seg02
Rope4_Seg04 Rope4_Seg03
Rope4_Seg05 Rope4_Seg04
Rope4_Seg06 Rope4_Seg05
Rope4_Seg07 Rope4_Seg06
Rope4_Seg08 Rope4_Seg07
Rope4_Seg09 Rope4_Seg08
L_rear_hand01 Rope4_Seg09
L_rear_hand02 Rope4_Seg09
L_rear_hand03 Rope4_Seg09
[BasePosition]
#SegmentName Tx, Ty, Tz, Rx, Ry, Rz, BoneLength
MASTER 0.000000 0.000000 0.000000 -90.000000 0.000000 0.000000 10.000000 
root 0.000000 0.000000 0.000000 0.000000 0.000000 0.000000 10.000000 
chest 0.000000 0.000000 0.000000 0.000000 0.000000 0.000000 10.000000 
L_mid_tent01 0.000000 0.000000 0.000000 0.000000 0.000000 0.000000 10.000000 
R_mid_tent01 0.000000 0.000000 0.000000 0.000000 0.000000 0.000000 10.000000 
spine01 0.000000 0.000000 0.000000 0.000000 0.000000 0.000000 10.000000 
Bip01_Neck 0.000000 0.000000 0.000000 0.000000 0.000000 0.000000 10.000000 
L_humerus 0.000000 0.000000 0.000000 0.000000 0.000000 0.000000 10.000000 
R_humerus 0.000000 0.000000 0.000000 0.000000 0.000000 0.000000 10.000000 
weapon_bone 0.000000 0.000000 0.000000 0.000000 0.000000 0.000000 10.000000 
Bip01_Head 0.000000 0.000000 0.000000 0.000000 0.000000 0.000000 10.000000 
eye_left_bone 0.000000 0.000000 0.000000 0.000000 0.000000 0.000000 10.000000 
eye_right_bone 0.000000 0.000000 0.000000 0.000000 0.000000 0.000000 10.000000 
L_forearm 0.000000 0.000000 0.000000 0.000000 0.000000 0.000000 10.000000 
L_front_hand 0.000000 0.000000 0.000000 0.000000 0.000000 0.000000 10.000000 
L_weapon_bone 0.000000 0.000000 0.000000 0.000000 0.000000 0.000000 10.000000 
L_front_hand01_01 0.000000 0.000000 0.000000 0.000000 0.000000 0.000000 10.000000 
L_front_hand02_01 0.000000 0.000000 0.000000 0.000000 0.000000 0.000000 10.000000 
L_front_hand03_01 0.000000 0.000000 0.000000 0.000000 0.000000 0.000000 10.000000 
L_front_hand01_02 0.000000 0.000000 0.000000 0.000000 0.000000 0.000000 10.000000 
L_front_hand02_02 0.000000 0.000000 0.000000 0.000000 0.000000 0.000000 10.000000 
L_front_hand03_02 0.000000 0.000000 0.000000 0.000000 0.000000 0.000000 10.000000 
R_forearm 0.000000 0.000000 0.000000 0.000000 0.000000 0.000000 10.000000 
R_front_hand 0.000000 0.000000 0.000000 0.000000 0.000000 0.000000 10.000000 
R_weapon_bone 0.000000 0.000000 0.000000 0.000000 0.000000 0.000000 10.000000 
R_front_hand01_01 0.000000 0.000000 0.000000 0.000000 0.000000 0.000000 10.000000 
R_front_hand02_01 0.000000 0.000000 0.000000 0.000000 0.000000 0.000000 10.000000 
R_front_hand03_01 0.000000 0.000000 0.000000 0.000000 0.000000 0.000000 10.000000 
R_front_hand01_02 0.000000 0.000000 0.000000 0.000000 0.000000 0.000000 10.000000 
R_front_hand02_02 0.000000 0.000000 0.000000 0.000000 0.000000 0.000000 10.000000 
R_front_hand03_02 0.000000 0.000000 0.000000 0.000000 0.000000 0.000000 10.000000 
null_rope01_connect 0.000000 0.000000 0.000000 0.000000 0.000000 0.000000 10.000000 
Rope1_Seg01 0.000000 0.000000 0.000000 0.000000 0.000000 0.000000 10.000000 
Rope1_Seg02 0.000000 0.000000 0.000000 0.000000 0.000000 0.000000 10.000000 
Rope1_Seg03 0.000000 0.000000 0.000000 0.000000 0.000000 0.000000 10.000000 
Rope1_Seg04 0.000000 0.000000 0.000000 0.000000 0.000000 0.000000 10.000000 
Rope1_Seg05 0.000000 0.000000 0.000000 0.000000 0.000000 0.000000 10.000000 
Rope1_Seg06 0.000000 0.000000 0.000000 0.000000 0.000000 0.000000 10.000000 
Rope1_Seg07 0.000000 0.000000 0.000000 0.000000 0.000000 0.000000 10.000000 
Rope1_Seg09 0.000000 0.000000 0.000000 0.000000 0.000000 0.000000 10.000000 
L_mid_hand01 0.000000 0.000000 0.000000 0.000000 0.000000 0.000000 10.000000 
L_mid_hand02 0.000000 0.000000 0.000000 0.000000 0.000000 0.000000 10.000000 
L_mid_hand03 0.000000 0.000000 0.000000 0.000000 0.000000 0.000000 10.000000 
null_rope02_connect 0.000000 0.000000 0.000000 0.000000 0.000000 0.000000 10.000000 
Rope2_Seg01 0.000000 0.000000 0.000000 0.000000 0.000000 0.000000 10.000000 
Rope2_Seg02 0.000000 0.000000 0.000000 0.000000 0.000000 0.000000 10.000000 
Rope2_Seg03 0.000000 0.000000 0.000000 0.000000 0.000000 0.000000 10.000000 
Rope2_Seg04 0.000000 0.000000 0.000000 0.000000 0.000000 0.000000 10.000000 
Rope2_Seg05 0.000000 0.000000 0.000000 0.000000 0.000000 0.000000 10.000000 
Rope2_Seg06 0.000000 0.000000 0.000000 0.000000 0.000000 0.000000 10.000000 
Rope2_Seg07 0.000000 0.000000 0.000000 0.000000 0.000000 0.000000 10.000000 
Rope2_Seg09 0.000000 0.000000 0.000000 0.000000 0.000000 0.000000 10.000000 
R_mid_hand01 0.000000 0.000000 0.000000 0.000000 0.000000 0.000000 10.000000 
R_mid_hand02 0.000000 0.000000 0.000000 0.000000 0.000000 0.000000 10.000000 
R_mid_hand03 0.000000 0.000000 0.000000 0.000000 0.000000 0.000000 10.000000 
spine02 0.000000 0.000000 0.000000 0.000000 0.000000 0.000000 10.000000 
spine03 0.000000 0.000000 0.000000 0.000000 0.000000 0.000000 10.000000 
pelvis 0.000000 0.000000 0.000000 0.000000 0.000000 0.000000 10.000000 
null_rope03_connect 0.000000 0.000000 0.000000 0.000000 0.000000 0.000000 10.000000 
null_rope04_connect 0.000000 0.000000 0.000000 0.000000 0.000000 0.000000 10.000000 
Rope3_Seg01 0.000000 0.000000 0.000000 0.000000 0.000000 0.000000 10.000000 
Rope3_Seg02 0.000000 0.000000 0.000000 0.000000 0.000000 0.000000 10.000000 
Rope3_Seg03 0.000000 0.000000 0.000000 0.000000 0.000000 0.000000 10.000000 
Rope3_Seg04 0.000000 0.000000 0.000000 0.000000 0.000000 0.000000 10.000000 
Rope3_Seg05 0.000000 0.000000 0.000000 0.000000 0.000000 0.000000 10.000000 
Rope3_Seg06 0.000000 0.000000 0.000000 0.000000 0.000000 0.000000 10.000000 
Rope3_Seg07 0.000000 0.000000 0.000000 0.000000 0.000000 0.000000 10.000000 
Rope3_Seg08 0.000000 0.000000 0.000000 0.000000 0.000000 0.000000 10.000000 
Rope3_Seg09 0.000000 0.000000 0.000000 0.000000 0.000000 0.000000 10.000000 
R_rear_hand01 0.000000 0.000000 0.000000 0.000000 0.000000 0.000000 10.000000 
R_rear_hand02 0.000000 0.000000 0.000000 0.000000 0.000000 0.000000 10.000000 
R_rear_hand03 0.000000 0.000000 0.000000 0.000000 0.000000 0.000000 10.000000 
Rope4_Seg01 0.000000 0.000000 0.000000 0.000000 0.000000 0.000000 10.000000 
Rope4_Seg02 0.000000 0.000000 0.000000 0.000000 0.000000 0.000000 10.000000 
Rope4_Seg03 0.000000 0.000000 0.000000 0.000000 0.000000 0.000000 10.000000 
Rope4_Seg04 0.000000 0.000000 0.000000 0.000000 0.000000 0.000000 10.000000 
Rope4_Seg05 0.000000 0.000000 0.000000 0.000000 0.000000 0.000000 10.000000 
Rope4_Seg06 0.000000 0.000000 0.000000 0.000000 0.000000 0.000000 10.000000 
Rope4_Seg07 0.000000 0.000000 0.000000 0.000000 0.000000 0.000000 10.000000 
Rope4_Seg08 0.000000 0.000000 0.000000 0.000000 0.000000 0.000000 10.000000 
Rope4_Seg09 0.000000 0.000000 0.000000 0.000000 0.000000 0.000000 10.000000 
L_rear_hand01 0.000000 0.000000 0.000000 0.000000 0.000000 0.000000 10.000000 
L_rear_hand02 0.000000 0.000000 0.000000 0.000000 0.000000 0.000000 10.000000 
L_rear_hand03 0.000000 0.000000 0.000000 0.000000 0.000000 0.000000 10.000000 
#Beginning of Data. Separated by tabs
#Fr	Tx	Ty	Tz	Rx	Ry	Rz	SF
[MASTER]
10 869.788574 -1768.901489 1481.235962 0.000000 -0.002347 -90.000000 2465.685303
11 974.307922 -2010.592651 1801.261475 0.000000 -0.002347 -89.999992 2869.895752
[root]
10 -24.877508 -64.509430 546.733093 -152.747528 -19.279064 -161.657669 551.087463
11 -51.398663 -43.988407 304.501801 -161.372925 -14.168557 -162.351791 311.926514
[chest]
10 -84.512650 -34.090519 0.000000 -33.584007 -17.482666 -163.843933 91.129311
11 -84.512650 -34.090519 0.000000 -38.105728 -18.474644 -160.241592 91.129311
[L_mid_tent01]
10 27.299177 22.179180 -249.918701 -1.929941 22.018822 67.324829 252.381699
11 27.299185 22.179184 -249.918701 -1.894396 22.358292 67.337692 252.381699
[R_mid_tent01]
10 23.228794 24.509907 226.238495 173.260605 -25.414488 57.886974 228.744751
11 23.228794 24.509907 226.238495 172.965881 -23.503592 57.670807 228.744751
[spine01]
10 -0.361383 -0.195265 0.000000 0.001955 0.001299 22.777878 0.410763
11 -0.361383 -0.195265 0.000000 0.001955 0.001299 22.813198 0.410763
[Bip01_Neck]
10 165.484543 71.581718 0.000119 176.643677 -1.657967 43.431911 180.302734
11 165.484543 71.581718 0.000119 176.643677 -1.657967 43.431911 180.302734
[L_humerus]
10 -13.983130 -135.272980 -120.471481 21.187447 77.684509 111.190674 181.680161
11 -13.983130 -135.272980 -120.471481 35.315369 80.641777 125.474564 181.680161
[R_humerus]
10 -13.983309 -135.273102 125.287651 -172.777237 -73.534454 -92.207626 184.909012
11 -13.983309 -135.273102 125.287651 -172.439240 -66.725060 -92.491844 184.909012
[weapon_bone]
10 235.964890 -300.705902 0.000000 0.000000 -89.951546 -128.212341 382.234833
11 235.964890 -300.705902 0.000000 0.000000 -89.951546 -128.212341 382.234833
[Bip01_Head]
10 213.619797 185.227356 18.079205 17.514528 -1.036712 -43.898361 283.318604
11 213.564270 185.382126 16.082438 17.787975 0.048447 -43.886574 283.257599
[eye_left_bone]
10 -24.626970 125.451866 -64.772606 0.000000 -90.000000 -99.840431 143.318359
11 -24.626970 125.451866 -64.772606 0.000000 -90.000000 -99.840431 143.318359
[eye_right_bone]
10 -24.626970 125.451866 64.327362 0.000000 -89.965736 80.156380 143.117676
11 -24.626970 125.451866 64.327362 0.000000 -89.965736 80.156380 143.117676
[L_forearm]
10 322.776093 0.000000 -0.000119 0.000426 -0.002308 -110.909744 322.776093
11 322.776093 0.000000 -0.000119 0.000428 -0.002308 -111.005806 322.776093
[L_front_hand]
10 241.149185 -0.042021 -3.300071 -178.667953 -1.835447 -27.422342 241.171753
11 241.149185 -0.042021 -3.300071 -178.667953 -1.835447 -27.422342 241.171753
[L_weapon_bone]
10 156.183838 0.000000 0.000000 0.000014 0.000007 0.000001 156.183838
11 156.183838 0.000000 0.000000 0.000014 0.000007 0.000001 156.183838
[L_front_hand01_01]
10 86.095154 20.947098 -0.655860 -0.279531 -0.529728 65.431473 88.609184
11 86.095154 20.947098 -0.655860 -0.273295 -0.533469 64.985298 88.609184
[L_front_hand02_01]
10 86.935165 -11.437475 24.513514 141.258118 -54.537659 -45.777599 91.046425
11 86.935165 -11.437475 24.513514 140.772385 -54.262844 -45.183468 91.046425
[L_front_hand03_01]
10 86.637497 -14.123976 -20.424902 -141.638611 52.767319 -47.837204 90.126129
11 86.637497 -14.123976 -20.424902 -141.183044 52.494118 -47.265888 90.126129
[L_front_hand01_02]
10 71.020905 -0.000179 0.000030 0.000315 -0.002326 -105.412971 71.020905
11 71.020905 -0.000179 0.000030 0.000315 -0.002326 -105.406754 71.020905
[L_front_hand02_02]
10 71.020927 -0.000119 0.000060 0.000315 -0.002326 -105.412971 71.020927
11 71.020927 -0.000119 0.000060 0.000315 -0.002326 -105.406754 71.020927
[L_front_hand03_02]
10 71.020905 -0.000060 0.000060 0.000315 -0.002326 -105.412971 71.020905
11 71.020905 -0.000060 0.000060 0.000315 -0.002326 -105.406754 71.020905
[R_forearm]
10 322.776428 -0.000060 0.000030 0.201229 0.067807 -109.568077 322.776428
11 322.776428 -0.000060 0.000030 0.201174 0.067971 -109.661888 322.776428
[R_front_hand]
10 238.847015 -0.006795 2.210259 -2.635298 -10.645461 -26.312506 238.857239
11 238.847015 -0.006795 2.210259 -2.635298 -10.645461 -26.312506 238.857239
[R_weapon_bone]
10 155.664093 0.002503 -0.000030 0.003487 0.001180 -90.988930 155.664078
11 155.664093 0.002503 -0.000030 0.003487 0.001180 -90.988930 155.664078
[R_front_hand01_01]
10 87.624611 14.231146 22.918642 -140.102493 -53.853168 44.460335 91.683487
11 87.624611 14.231146 22.918642 -138.890259 -53.085796 42.950848 91.683487
[R_front_hand02_01]
10 89.356956 14.367283 -19.491137 140.872437 52.278004 47.106758 92.579636
11 89.356956 14.367283 -19.491137 139.720169 51.522045 45.641415 92.579636
[R_front_hand03_01]
10 87.286232 -22.307278 -0.143439 0.074609 -0.448192 -64.587509 90.091743
11 87.286232 -22.307278 -0.143439 0.065790 -0.451534 -63.409447 90.091743
[R_front_hand01_02]
10 71.020905 0.000060 0.000119 0.002323 -0.000334 106.381714 71.020905
11 71.020905 0.000060 0.000119 0.002323 -0.000334 106.381714 71.020905
[R_front_hand02_02]
10 71.020844 -0.000030 -0.000119 0.002323 -0.000334 106.381714 71.020836
11 71.020844 -0.000030 -0.000119 0.002323 -0.000334 106.381714 71.020836
[R_front_hand03_02]
10 71.020905 0.000000 0.000030 0.002323 -0.000334 106.381714 71.020905
11 71.020905 0.000000 0.000030 0.002323 -0.000334 106.381714 71.020905
[null_rope01_connect]
10 328.732483 0.000000 -0.000238 157.107681 13.672267 37.334141 328.732483
11 328.732483 0.000000 -0.000238 159.257782 3.480184 37.844528 328.732483
[Rope1_Seg01]
10 0.000000 0.000000 0.000000 -146.139206 -61.555481 -110.460487 0.000000
11 0.000000 0.000000 0.000000 -114.150673 -57.022976 -130.612244 0.000000
[Rope1_Seg02]
10 139.999863 -0.000179 0.000000 -12.953310 -10.400779 -1.098511 139.999863
11 139.999863 -0.000179 0.000000 -6.196294 -6.251376 2.046762 139.999863
[Rope1_Seg03]
10 139.999924 0.000060 -0.000060 -38.103840 -22.097248 -5.642496 139.999924
11 139.999924 0.000060 -0.000060 -22.625443 -12.719278 2.784594 139.999924
[Rope1_Seg04]
10 139.999924 -0.000060 -0.000119 -30.824165 -16.820930 -32.132515 139.999924
11 139.999924 -0.000060 -0.000119 -101.712349 -36.442398 0.959957 139.999924
[Rope1_Seg05]
10 139.999832 0.000119 -0.000060 0.884515 14.571368 -10.335595 139.999832
11 139.999832 0.000119 -0.000060 3.138043 26.602285 -18.486923 139.999832
[Rope1_Seg06]
10 139.999954 0.000119 -0.000060 -0.298919 4.831106 -5.710863 139.999954
11 139.999954 0.000119 -0.000060 4.564911 17.325190 -2.607318 139.999954
[Rope1_Seg07]
10 139.999985 0.000060 0.000000 -0.119758 2.541580 -3.241648 139.999985
11 139.999985 0.000060 0.000000 0.359743 6.246247 -3.699114 139.999985
[Rope1_Seg09]
10 121.602913 0.000119 -0.000089 -89.793175 -1.359789 0.847147 121.602913
11 121.602913 0.000119 -0.000089 -89.793175 -1.359789 0.847147 121.602913
[L_mid_hand01]
10 103.859421 1.038730 8.195221 109.301483 -41.408253 -13.576799 104.187431
11 103.859421 1.038730 8.195221 109.056198 -40.604698 -13.201401 104.187431
[L_mid_hand02]
10 105.572853 -4.139662 -10.864139 -147.153671 31.943630 -38.737034 106.211075
11 105.572853 -4.139662 -10.864139 -146.713593 31.476528 -37.902313 106.211075
[L_mid_hand03]
10 104.641464 17.579376 -3.913581 -14.087292 12.528420 44.741467 106.179977
11 104.641464 17.579376 -3.913581 -14.267233 12.322316 43.898396 106.179977
[null_rope02_connect]
10 328.732849 0.000179 -0.000119 22.157383 -37.857929 -72.274681 328.732849
11 328.732849 0.000179 -0.000119 18.353802 -29.006718 -63.677071 328.732849
[Rope2_Seg01]
10 -0.000069 -0.000156 0.000000 -113.664864 64.758537 170.848785 0.000171
11 -0.000069 -0.000153 0.000000 -98.467239 61.155697 -177.524506 0.000167
[Rope2_Seg02]
10 139.999741 -0.000060 -0.000119 -3.952865 -21.493605 13.668912 139.999756
11 139.999741 -0.000060 -0.000119 -6.427062 -26.111666 19.186653 139.999756
[Rope2_Seg03]
10 140.000107 0.000030 0.000000 -0.495359 -5.386435 4.244343 140.000107
11 140.000107 0.000030 0.000000 -0.713505 -9.428780 9.315845 140.000107
[Rope2_Seg04]
10 139.999802 0.000000 -0.000060 -0.358144 -8.629384 4.503533 139.999802
11 139.999802 0.000000 -0.000060 -0.080681 -7.062014 4.145046 139.999802
[Rope2_Seg05]
10 139.999985 -0.000060 0.000119 -4.340834 -30.775194 15.539927 139.999985
11 139.999985 -0.000060 0.000119 -2.637427 -19.986031 6.039367 139.999985
[Rope2_Seg06]
10 139.999893 -0.000030 -0.000119 -4.626540 -31.009113 15.550256 139.999893
11 139.999893 -0.000030 -0.000119 -19.803391 -35.163223 9.189179 139.999893
[Rope2_Seg07]
10 139.999893 0.000060 -0.000060 -0.627255 -10.709596 4.850469 139.999893
11 139.999893 0.000060 -0.000060 -52.514435 -16.223093 -0.781824 139.999893
[Rope2_Seg09]
10 121.338966 0.000089 -0.000060 33.793236 -1.359788 -0.847141 121.338966
11 121.338966 0.000089 -0.000060 33.793236 -1.359788 -0.847141 121.338966
[R_mid_hand01]
10 104.680779 11.144459 -10.335981 -31.399162 37.614391 47.725441 105.778534
11 104.680779 11.144459 -10.335981 -33.085678 36.191685 44.913235 105.778534
[R_mid_hand02]
10 104.070427 2.443552 8.231699 66.339699 -51.820030 19.540783 104.424065
11 104.070427 2.443552 8.231699 67.611237 -49.370296 17.897308 104.424065
[R_mid_hand03]
10 106.028137 -11.221827 -5.996406 -172.206848 13.802570 -57.446243 106.788818
11 106.028137 -11.221827 -5.996406 -171.571182 13.427420 -54.737041 106.788818
[spine02]
10 129.756927 0.001550 0.000119 0.509650 -4.027603 -15.069192 129.756927
11 129.756927 0.001550 0.000119 0.519308 -4.026342 -15.204302 129.756927
[spine03]
10 78.614059 0.081742 -4.899004 1.985424 3.786885 17.816505 78.766594
11 78.614059 0.081742 -4.899004 1.990685 3.785024 17.901806 78.766594
[pelvis]
10 169.435242 0.051022 0.000000 4.512069 -0.867253 6.321167 169.435257
11 169.435242 0.051022 0.000000 5.118963 -0.892984 4.824869 169.435257
[null_rope03_connect]
10 -1.257226 -2.466202 137.391083 170.963852 37.650738 78.616234 137.418976
11 -1.257226 -2.466202 137.391083 172.154556 28.461843 78.038246 137.418976
[null_rope04_connect]
10 -1.259640 -2.480268 -137.844437 170.963852 37.650738 78.616234 137.872513
11 -1.259640 -2.480268 -137.844437 172.154556 28.461843 78.038246 137.872513
[Rope3_Seg01]
10 0.000000 0.000000 0.000000 -126.033134 4.367385 132.537079 0.000000
11 0.000000 0.000000 0.000000 -119.571640 14.592945 136.873917 0.000000
[Rope3_Seg02]
10 139.999924 -0.000119 0.000060 11.710259 -23.653936 11.659137 139.999924
11 139.999924 -0.000119 0.000060 7.529134 -16.011721 17.018959 139.999924
[Rope3_Seg03]
10 139.999924 -0.000119 0.000119 9.507215 -22.982141 21.355024 139.999924
11 139.999924 -0.000119 0.000119 2.717904 -15.630033 26.442684 139.999924
[Rope3_Seg04]
10 139.999924 0.000119 0.000000 3.196734 -7.985294 13.090324 139.999924
11 139.999924 0.000119 0.000000 -0.751178 -5.508936 16.673866 139.999924
[Rope3_Seg05]
10 139.999924 -0.000238 0.000060 1.927514 -9.025078 10.672338 139.999924
11 139.999924 -0.000238 0.000060 -2.351196 -8.814775 10.715892 139.999924
[Rope3_Seg06]
10 139.999893 -0.000119 -0.000060 -0.032608 -17.401680 19.472826 139.999893
11 139.999893 -0.000119 -0.000060 -7.063212 -20.351383 16.752253 139.999893
[Rope3_Seg07]
10 139.999771 0.000060 -0.000119 -2.074291 -14.333282 17.890676 139.999771
11 139.999771 0.000060 -0.000119 -6.290493 -20.034960 14.427021 139.999771
[Rope3_Seg08]
10 139.999985 -0.000060 0.000000 -0.862926 -6.336752 8.070578 139.999985
11 139.999985 -0.000060 0.000000 -1.663931 -9.045078 5.916065 139.999985
[Rope3_Seg09]
10 90.185997 -0.000179 -0.000060 89.793228 -1.359877 -0.847183 90.185997
11 90.185997 -0.000179 -0.000060 89.793228 -1.359877 -0.847183 90.185997
[R_rear_hand01]
10 103.366196 -6.073594 -10.757982 -168.130341 21.777140 -49.871906 104.101845
11 103.366196 -6.073594 -10.757982 -167.001480 21.149061 -46.791374 104.101845
[R_rear_hand02]
10 100.509819 12.039542 -7.992327 -26.694445 29.195726 47.151855 101.543350
11 100.509819 12.039542 -7.992327 -28.108641 27.848612 44.189137 101.543350
[R_rear_hand03]
10 101.539970 5.215704 5.435467 81.113556 -50.109848 10.702383 101.819031
11 101.539970 5.215704 5.435467 81.609138 -47.214466 10.038949 101.819031
[Rope4_Seg01]
10 0.000010 0.000031 -0.000125 38.630882 -25.783260 103.413940 0.000129
11 0.000010 0.000031 -0.000122 32.612503 -20.969692 116.705818 0.000126
[Rope4_Seg02]
10 139.999985 0.000060 0.000119 -8.906283 -26.944338 23.219700 139.999985
11 139.999985 0.000060 0.000119 -19.978334 -24.952276 30.751724 139.999985
[Rope4_Seg03]
10 139.999924 0.000000 -0.000238 -8.615704 -37.121258 57.317772 139.999924
11 139.999924 0.000000 -0.000238 -16.353582 -32.325836 46.054153 139.999924
[Rope4_Seg04]
10 139.999985 0.000000 0.000119 6.618636 -25.644564 0.160054 139.999985
11 139.999985 0.000000 0.000119 4.697756 -28.744209 -3.175015 139.999985
[Rope4_Seg05]
10 139.999802 -0.000060 -0.000119 2.195948 -17.182726 -7.348310 139.999802
11 139.999802 -0.000060 -0.000119 3.344979 -21.239876 -8.797659 139.999802
[Rope4_Seg06]
10 139.999924 0.000000 0.000060 3.059226 -5.357213 -0.790324 139.999924
11 139.999924 0.000000 0.000060 3.384107 -6.837315 -1.291033 139.999924
[Rope4_Seg07]
10 139.999802 0.000000 0.000000 2.619602 -3.125630 -0.198489 139.999802
11 139.999802 0.000000 0.000000 2.984874 -3.877149 -0.406306 139.999802
[Rope4_Seg08]
10 139.999924 0.000000 0.000119 0.298964 -1.823296 -0.032778 139.999924
11 139.999924 0.000000 0.000119 0.622308 -2.223422 -0.119243 139.999924
[Rope4_Seg09]
10 90.185791 0.000060 0.000060 -135.617828 2.228885 0.850567 90.185791
11 90.185791 0.000060 0.000060 -135.617828 2.228885 0.850567 90.185791
[L_rear_hand01]
10 101.696655 -8.392275 -7.654577 -31.194277 -24.256094 142.819397 102.329041
11 101.696655 -8.392275 -7.654577 -30.608620 -25.023813 141.417831 102.329041
[L_rear_hand02]
10 102.726799 -1.568258 5.773216 82.562164 40.032185 171.334641 102.900848
11 102.726799 -1.568258 5.773216 82.398407 41.509426 171.081650 102.900848
[L_rear_hand03]
10 104.552910 9.721220 -10.420293 -164.408707 -19.357925 -140.691956 105.519653
11 104.552910 9.721220 -10.420293 -164.917755 -19.749290 -139.167572 105.519653
